# xmcd CD database file
#
# Track frame offsets:
#	150
#	17230
#	32655
#	49703
#
# Disc length: 866 seconds
#
# Revision: 1
# Processed by: cddbd v1.5PL3 Copyright (c) Steve Scherf et al.
# Submitted via: CDex 1.50
#
DISCID=29036004
DTITLE=ザ・コブラツイスターズ - 夢の旅人
DYEAR=1999
DGENRE=Anime
TTITLE0=夢の旅人
TTITLE1=路地裏の宇宙少年
TTITLE2=夢の旅人(Instrumental)
TTITLE3=路地裏の宇宙少年(Instrumental)
EXTD=YEAR: 1999
EXTT0=
EXTT1=
EXTT2=
EXTT3=
PLAYORDER=
